<?xml version="1.0" standalone="no"?>
<!DOCTYPE svg PUBLIC "-//W3C//DTD SVG 20010904//EN"
 "http://www.w3.org/TR/2001/REC-SVG-20010904/DTD/svg10.dtd">
<svg version="1.0" xmlns="http://www.w3.org/2000/svg"
 width="241.000000pt" height="233.000000pt" viewBox="0 0 241.000000 233.000000"
 preserveAspectRatio="xMidYMid meet">

<g transform="translate(0.000000,233.000000) scale(0.100000,-0.100000)"
fill="#000000" stroke="none">
<path d="M1015 2135 c-305 -58 -578 -262 -715 -535 -45 -92 -86 -213 -100
-300 -13 -84 -13 -257 0 -339 37 -225 175 -464 351 -609 318 -262 755 -311
1120 -127 372 189 598 608 549 1020 -54 452 -389 812 -830 891 -94 17 -283 16
-375 -1z m370 -527 c30 -35 29 -76 -2 -110 -14 -15 -15 -35 -10 -135 3 -65 11
-134 18 -153 6 -19 58 -139 115 -266 57 -126 104 -243 104 -258 0 -34 -16 -66
-44 -88 -19 -16 -54 -18 -359 -18 -371 0 -372 0 -397 61 -7 16 -10 43 -6 60 3
16 53 129 111 250 57 120 111 245 120 278 20 80 21 254 0 271 -9 8 -15 29 -15
55 0 35 5 48 26 64 24 19 40 21 169 21 l143 0 27 -32z"/>
<path d="M1070 1561 c0 -10 7 -21 15 -25 22 -8 21 -261 -1 -337 -9 -30 -63
-153 -120 -273 -57 -121 -104 -230 -104 -242 0 -51 20 -54 342 -54 168 0 308
4 322 10 42 16 33 54 -60 257 -140 306 -136 295 -142 472 -4 135 -2 155 12
163 9 5 16 18 16 28 0 19 -8 20 -140 20 -131 0 -140 -1 -140 -19z"/>
</g>
</svg>
